<svg width="19" height="20" viewBox="0 0 19 20" fill="none" xmlns="http://www.w3.org/2000/svg">
<path id="Vector - 0" fill-rule="evenodd" clip-rule="evenodd" d="M17 0.75H2C1.17157 0.75 0.5 1.42157 0.5 2.25V7.76062C0.5 16.1616 7.60812 18.9487 9.03125 19.4222C9.3352 19.5256 9.6648 19.5256 9.96875 19.4222C11.3938 18.9487 18.5 16.1616 18.5 7.76062V2.25C18.5 1.42157 17.8284 0.75 17 0.75ZM17 7.76156C17 15.1134 10.7797 17.5697 9.5 17.9972C8.23156 17.5744 2 15.12 2 7.76156V2.25H17V7.76156ZM5.21938 10.2806C4.92632 9.98757 4.92632 9.51243 5.21938 9.21937C5.51243 8.92632 5.98757 8.92632 6.28063 9.21937L8 10.9388L12.7194 6.21937C13.0124 5.92632 13.4876 5.92632 13.7806 6.21937C14.0737 6.51243 14.0737 6.98757 13.7806 7.28063L8.53063 12.5306C8.38995 12.6715 8.19906 12.7506 8 12.7506C7.80094 12.7506 7.61005 12.6715 7.46937 12.5306L5.21938 10.2806Z" fill="white"/>
</svg>
