<svg width="21" height="20" viewBox="0 0 21 20" fill="none" xmlns="http://www.w3.org/2000/svg">
<path id="Vector - 0" fill-rule="evenodd" clip-rule="evenodd" d="M19.7588 4.46875C19.6664 4.2405 19.4679 4.07212 19.2276 4.01823C18.9874 3.96434 18.736 4.03181 18.555 4.19875L14.7769 7.68531L13.1616 7.33844L12.8147 5.72312L16.3013 1.945C16.4682 1.76401 16.5357 1.51261 16.4818 1.27235C16.4279 1.0321 16.2595 0.833599 16.0312 0.74125C13.9504 -0.100511 11.5872 0.147229 9.72608 1.40224C7.865 2.65724 6.74956 4.75531 6.75 7C6.74879 7.93345 6.94028 8.8571 7.3125 9.71313L1.66781 14.5938C1.65375 14.605 1.64062 14.6181 1.6275 14.6303C0.455793 15.802 0.455793 17.7017 1.6275 18.8734C2.79921 20.0451 4.69892 20.0451 5.87063 18.8734C5.88281 18.8612 5.89594 18.8472 5.90719 18.8341L10.7869 13.1875C12.8752 14.1042 15.2851 13.9044 17.194 12.6563C19.1028 11.4082 20.2523 9.28063 20.25 7C20.2515 6.13242 20.0846 5.2728 19.7588 4.46875ZM13.5 12.25C12.6123 12.2488 11.7392 12.023 10.9622 11.5938C10.6519 11.4223 10.264 11.4916 10.0322 11.7597L4.79156 17.8291C4.20182 18.3894 3.27295 18.3775 2.69774 17.8023C2.12254 17.227 2.11064 16.2982 2.67094 15.7084L8.73563 10.4688C9.00423 10.2368 9.07348 9.8483 8.90156 9.53781C7.92593 7.77323 8.0471 5.6058 9.21334 3.96096C10.3796 2.31611 12.3848 1.48452 14.3728 1.82125L11.4478 4.99094C11.2827 5.17009 11.2148 5.41832 11.2659 5.65656L11.7966 8.125C11.8586 8.41337 12.0838 8.63863 12.3722 8.70063L14.8425 9.23125C15.0807 9.28235 15.329 9.21453 15.5081 9.04937L18.6778 6.12438C18.9336 7.6481 18.5059 9.20717 17.5085 10.3871C16.5111 11.5671 15.045 12.2484 13.5 12.25Z" fill="white"/>
</svg>
