<svg width="25" height="24" viewBox="0 0 25 24" fill="none" xmlns="http://www.w3.org/2000/svg">
<g id="react-icons/CiFacebook">
<g id="Facebook">
<path id="Vector" d="M19.5198 4.97498C18.1308 3.58658 16.3613 2.64124 14.435 2.25851C12.5087 1.87577 10.5122 2.07284 8.69789 2.82478C6.88361 3.57672 5.33303 4.84976 4.24225 6.48293C3.15146 8.1161 2.56946 10.036 2.56982 12C2.56982 14.634 3.61586 17.1603 5.47795 19.0233C7.34004 20.8863 9.86577 21.9337 12.4998 21.935C13.8033 21.9355 15.0943 21.6807 16.2998 21.185C17.5015 20.6777 18.5946 19.9445 19.5198 19.025C20.4425 18.1025 21.1743 17.0073 21.6737 15.8019C22.173 14.5966 22.43 13.3047 22.43 12C22.43 10.6953 22.173 9.40337 21.6737 8.19801C21.1743 6.99265 20.4425 5.89746 19.5198 4.97498ZM18.8198 18.315C17.3899 19.7511 15.5136 20.6575 13.4998 20.885V14.325H15.3798C15.645 14.325 15.8994 14.2196 16.0869 14.0321C16.2745 13.8445 16.3798 13.5902 16.3798 13.325C16.3798 13.0598 16.2745 12.8054 16.0869 12.6179C15.8994 12.4303 15.645 12.325 15.3798 12.325H13.4998V9.58498C13.4998 9.31976 13.6052 9.06541 13.7927 8.87787C13.9803 8.69034 14.2346 8.58498 14.4998 8.58498H15.6998C15.965 8.58498 16.2194 8.47962 16.4069 8.29209C16.5945 8.10455 16.6998 7.8502 16.6998 7.58498C16.6998 7.31976 16.5945 7.06541 16.4069 6.87787C16.2194 6.69034 15.965 6.58498 15.6998 6.58498H13.9998C13.3368 6.58498 12.7009 6.84837 12.2321 7.31721C11.7632 7.78605 11.4998 8.42194 11.4998 9.08498V12.325H9.62982C9.36461 12.325 9.11025 12.4303 8.92272 12.6179C8.73518 12.8054 8.62982 13.0598 8.62982 13.325C8.62982 13.5902 8.73518 13.8445 8.92272 14.0321C9.11025 14.2196 9.36461 14.325 9.62982 14.325H11.4998V20.885C9.64272 20.6731 7.8991 19.8831 6.51527 18.6266C5.13144 17.3702 4.17734 15.7107 3.78772 13.8826C3.39811 12.0545 3.59268 10.1502 4.34396 8.43864C5.09523 6.72711 6.36523 5.29486 7.97457 4.3442C9.58392 3.39354 11.4513 2.97252 13.3128 3.1406C15.1744 3.30868 16.9362 4.05737 18.3492 5.28092C19.7622 6.50447 20.7551 8.14104 21.1877 9.95946C21.6203 11.7779 21.4706 13.6862 20.7598 15.415C20.3071 16.4982 19.6483 17.4831 18.8198 18.315Z" fill="#94B2C7"/>
</g>
</g>
</svg>
