<svg width="23" height="14" viewBox="0 0 23 14" fill="none" xmlns="http://www.w3.org/2000/svg">
<path id="Vector - 0" fill-rule="evenodd" clip-rule="evenodd" d="M11.5 3.25C9.42893 3.25 7.75 4.92893 7.75 7C7.75 9.07107 9.42893 10.75 11.5 10.75C13.5711 10.75 15.25 9.07107 15.25 7C15.25 4.92893 13.5711 3.25 11.5 3.25ZM11.5 9.25C10.2574 9.25 9.25 8.24264 9.25 7C9.25 5.75736 10.2574 4.75 11.5 4.75C12.7426 4.75 13.75 5.75736 13.75 7C13.75 8.24264 12.7426 9.25 11.5 9.25ZM22 0.25H1C0.585786 0.25 0.25 0.585786 0.25 1V13C0.25 13.4142 0.585786 13.75 1 13.75H22C22.4142 13.75 22.75 13.4142 22.75 13V1C22.75 0.585786 22.4142 0.25 22 0.25ZM17.6547 12.25H5.34531C4.83369 10.5197 3.48033 9.16631 1.75 8.65469V5.34531C3.48033 4.83369 4.83369 3.48033 5.34531 1.75H17.6547C18.1663 3.48033 19.5197 4.83369 21.25 5.34531V8.65469C19.5197 9.16631 18.1663 10.5197 17.6547 12.25ZM21.25 3.75344C20.3504 3.36662 19.6334 2.64959 19.2466 1.75H21.25V3.75344ZM3.75344 1.75C3.36662 2.64959 2.64959 3.36662 1.75 3.75344V1.75H3.75344ZM1.75 10.2466C2.64959 10.6334 3.36662 11.3504 3.75344 12.25H1.75V10.2466ZM19.2466 12.25C19.6334 11.3504 20.3504 10.6334 21.25 10.2466V12.25H19.2466Z" fill="white"/>
</svg>
