<svg width="21" height="20" viewBox="0 0 21 20" fill="none" xmlns="http://www.w3.org/2000/svg">
<path id="Vector - 0" fill-rule="evenodd" clip-rule="evenodd" d="M20.4375 6.51125C20.0103 6.02713 19.3957 5.74987 18.75 5.75H13.5V4.25C13.5 2.17893 11.8211 0.5 9.75 0.5C9.46581 0.499797 9.20592 0.660232 9.07875 0.914375L5.53687 8H1.5C0.671573 8 0 8.67157 0 9.5V17.75C0 18.5784 0.671573 19.25 1.5 19.25H17.625C18.7592 19.2504 19.7164 18.4065 19.8581 17.2812L20.9831 8.28125C21.0638 7.64028 20.865 6.99556 20.4375 6.51125ZM1.5 9.5H5.25V17.75H1.5V9.5ZM19.4944 8.09375L18.3694 17.0938C18.3221 17.4688 18.0031 17.7501 17.625 17.75H6.75V8.92719L10.1916 2.04312C11.2434 2.25363 12.0003 3.17735 12 4.25V6.5C12 6.91421 12.3358 7.25 12.75 7.25H18.75C18.9653 7.24993 19.1702 7.34238 19.3127 7.50383C19.4551 7.66527 19.5213 7.88014 19.4944 8.09375Z" fill="white"/>
</svg>
