<svg width="23" height="21" viewBox="0 0 23 21" fill="none" xmlns="http://www.w3.org/2000/svg">
<path id="Vector - 0" fill-rule="evenodd" clip-rule="evenodd" d="M22.0631 9.5L15.7388 3.1325C12.2218 -0.377393 6.52723 -0.377393 3.01031 3.1325L3.00187 3.14094L1.71094 4.475C1.43276 4.77395 1.44487 5.2405 1.73817 5.52462C2.03148 5.80873 2.49818 5.80598 2.78813 5.51844L4.07531 4.18906C4.59318 3.6713 5.18415 3.23226 5.82937 2.88594L10.1888 7.25L1.18875 16.25C0.907371 16.5313 0.749289 16.9129 0.749289 17.3108C0.749289 17.7087 0.907371 18.0902 1.18875 18.3716L3.12844 20.3113C3.40975 20.5926 3.79133 20.7507 4.18922 20.7507C4.5871 20.7507 4.96869 20.5926 5.25 20.3113L14.25 11.3112L15.5944 12.6556L17.25 14.3094C17.5313 14.5908 17.9129 14.7488 18.3108 14.7488C18.7087 14.7488 19.0902 14.5908 19.3716 14.3094L22.0613 11.6197C22.6465 11.0346 22.6473 10.0861 22.0631 9.5ZM4.18875 19.25L2.25 17.3103L8.625 10.9353L10.5638 12.875L4.18875 19.25ZM13.7194 9.7175L11.625 11.8128L9.68531 9.875L11.7806 7.77969C11.9215 7.63901 12.0006 7.44812 12.0006 7.24906C12.0006 7.05001 11.9215 6.85911 11.7806 6.71844L7.3425 2.28125C9.95333 1.54594 12.7577 2.27761 14.6766 4.19469L18.8222 8.3675L16.125 11.0619L14.7806 9.7175C14.6399 9.57667 14.4491 9.49753 14.25 9.49753C14.0509 9.49753 13.8601 9.57667 13.7194 9.7175ZM18.3131 13.2481L17.1881 12.1231L19.875 9.42969L21 10.5547L18.3131 13.2481Z" fill="white"/>
</svg>
