<svg width="23" height="16" viewBox="0 0 23 16" fill="none" xmlns="http://www.w3.org/2000/svg">
<path id="Vector - 0" fill-rule="evenodd" clip-rule="evenodd" d="M22.6956 5.96875L21.3831 2.6875C21.1553 2.11944 20.6039 1.74789 19.9919 1.75H16.75V1C16.75 0.585786 16.4142 0.25 16 0.25H1.75C0.921573 0.25 0.25 0.921573 0.25 1.75V12.25C0.25 13.0784 0.921573 13.75 1.75 13.75H3.34375C3.68363 15.0774 4.87974 16.0059 6.25 16.0059C7.62026 16.0059 8.81637 15.0774 9.15625 13.75H13.8438C14.1836 15.0774 15.3797 16.0059 16.75 16.0059C18.1203 16.0059 19.3164 15.0774 19.6562 13.75H21.25C22.0784 13.75 22.75 13.0784 22.75 12.25V6.25C22.7503 6.15361 22.7318 6.05809 22.6956 5.96875ZM16.75 3.25H19.9919L20.8919 5.5H16.75V3.25ZM1.75 1.75H15.25V7.75H1.75V1.75ZM6.25 14.5C5.42157 14.5 4.75 13.8284 4.75 13C4.75 12.1716 5.42157 11.5 6.25 11.5C7.07843 11.5 7.75 12.1716 7.75 13C7.75 13.8284 7.07843 14.5 6.25 14.5ZM13.8438 12.25H9.15625C8.81637 10.9226 7.62026 9.99412 6.25 9.99412C4.87974 9.99412 3.68363 10.9226 3.34375 12.25H1.75V9.25H15.25V10.4041C14.5534 10.8067 14.047 11.4715 13.8438 12.25ZM16.75 14.5C15.9216 14.5 15.25 13.8284 15.25 13C15.25 12.1716 15.9216 11.5 16.75 11.5C17.5784 11.5 18.25 12.1716 18.25 13C18.25 13.8284 17.5784 14.5 16.75 14.5ZM21.25 12.25H19.6562C19.3124 10.9261 18.1179 10.0013 16.75 10V7H21.25V12.25Z" fill="white"/>
</svg>
