<svg width="25" height="24" viewBox="0 0 25 24" fill="none" xmlns="http://www.w3.org/2000/svg">
<g id="react-icons/PiTelegramLogoLight">
<path id="Vector" d="M21.8346 2.59688C21.7441 2.51876 21.6341 2.46681 21.5163 2.44666C21.3985 2.4265 21.2774 2.4389 21.1661 2.4825L2.16676 9.91782C1.93567 10.0082 1.74015 10.1712 1.60957 10.3822C1.47899 10.5932 1.42039 10.8409 1.44258 11.0881C1.46477 11.3352 1.56655 11.5685 1.73263 11.7529C1.89871 11.9373 2.12013 12.0628 2.36364 12.1106L7.43739 13.1072V18.75C7.43749 19.0116 7.51577 19.2672 7.66217 19.484C7.80857 19.7008 8.01642 19.8689 8.25904 19.9667C8.50166 20.0646 8.76798 20.0877 9.02382 20.0331C9.27965 19.9785 9.51334 19.8487 9.69489 19.6603L12.1924 17.07L16.0905 20.4872C16.3285 20.6978 16.6352 20.8141 16.953 20.8144C17.0918 20.8141 17.2297 20.7922 17.3618 20.7497C17.5783 20.6812 17.7731 20.5571 17.9268 20.3898C18.0804 20.2225 18.1875 20.0178 18.2374 19.7963L22.0455 3.24094C22.0723 3.12455 22.0668 3.00307 22.0296 2.88957C21.9924 2.77608 21.925 2.67488 21.8346 2.59688ZM2.56707 11.0034C2.56348 10.9938 2.56348 10.9831 2.56707 10.9734C2.57131 10.9702 2.57606 10.9676 2.58114 10.9659L17.5539 5.10469L7.86957 12.0422L2.58114 11.0072L2.56707 11.0034ZM8.88489 18.8784C8.85905 18.9053 8.82581 18.9238 8.78941 18.9316C8.75301 18.9395 8.7151 18.9363 8.68051 18.9225C8.64591 18.9087 8.6162 18.885 8.59517 18.8543C8.57413 18.8235 8.56272 18.7872 8.56239 18.75V13.8853L11.3458 16.3228L8.88489 18.8784ZM17.1414 19.5422C17.1345 19.5739 17.1192 19.6031 17.0971 19.6269C17.075 19.6506 17.0469 19.668 17.0158 19.6772C16.9841 19.6883 16.9499 19.6907 16.9169 19.6841C16.8839 19.6775 16.8533 19.6622 16.8283 19.6397L8.90364 12.6881L20.6561 4.26563L17.1414 19.5422Z" fill="#94B2C7"/>
</g>
</svg>
