<svg width="15" height="22" viewBox="0 0 15 22" fill="none" xmlns="http://www.w3.org/2000/svg">
<path id="Vector - 0" fill-rule="evenodd" clip-rule="evenodd" d="M15 11C14.9994 8.61195 13.8608 6.36714 11.9344 4.95594L11.3494 1.73281C11.2202 1.01919 10.599 0.500187 9.87375 0.5H5.12625C4.40103 0.500187 3.77981 1.01919 3.65063 1.73281L3.06563 4.95594C1.1386 6.36669 -0.000209332 8.61177 -0.000209332 11C-0.000209332 13.3882 1.1386 15.6333 3.06563 17.0441L3.65063 20.2672C3.77981 20.9808 4.40103 21.4998 5.12625 21.5H9.87375C10.599 21.4998 11.2202 20.9808 11.3494 20.2672L11.9344 17.0441C13.8608 15.6329 14.9994 13.388 15 11ZM5.12625 2H9.87375L10.2403 4.02031C8.47929 3.32659 6.52071 3.32659 4.75969 4.02031L5.12625 2ZM1.5 11C1.5 7.68629 4.18629 5 7.5 5C10.8137 5 13.5 7.68629 13.5 11C13.5 14.3137 10.8137 17 7.5 17C4.18779 16.9964 1.50362 14.3122 1.5 11ZM9.87375 20H5.12625L4.75969 17.9797C6.52071 18.6734 8.47929 18.6734 10.2403 17.9797L9.87375 20ZM6.75 11V7.25C6.75 6.83579 7.08579 6.5 7.5 6.5C7.91421 6.5 8.25 6.83579 8.25 7.25V10.25H11.25C11.6642 10.25 12 10.5858 12 11C12 11.4142 11.6642 11.75 11.25 11.75H7.5C7.08579 11.75 6.75 11.4142 6.75 11Z" fill="white"/>
</svg>
