<svg width="21" height="20" viewBox="0 0 21 20" fill="none" xmlns="http://www.w3.org/2000/svg">
<path id="Vector - 0" fill-rule="evenodd" clip-rule="evenodd" d="M20.0306 18.4694L15.3366 13.7762C18.1629 10.383 17.8204 5.36693 14.5591 2.38935C11.2978 -0.588237 6.27134 -0.474001 3.14867 2.64867C0.0259986 5.77134 -0.0882368 10.7978 2.88935 14.0591C5.86693 17.3204 10.883 17.6629 14.2762 14.8366L18.9694 19.5306C19.2624 19.8237 19.7376 19.8237 20.0306 19.5306C20.3237 19.2376 20.3237 18.7624 20.0306 18.4694ZM2.25 8.5C2.25 4.77208 5.27208 1.75 9 1.75C12.7279 1.75 15.75 4.77208 15.75 8.5C15.75 12.2279 12.7279 15.25 9 15.25C5.27379 15.2459 2.25413 12.2262 2.25 8.5Z" fill="white"/>
</svg>
