<svg width="25" height="24" viewBox="0 0 25 24" fill="none" xmlns="http://www.w3.org/2000/svg">
<g id="react-icons/PiWhatsappLogo">
<path id="Vector" d="M18.0858 13.5787L15.0858 12.0787C14.9677 12.0199 14.8362 11.9933 14.7045 12.0015C14.5728 12.0097 14.4456 12.0525 14.3358 12.1256L12.9586 13.0444C12.3264 12.6968 11.8062 12.1766 11.4586 11.5444L12.3774 10.1672C12.4505 10.0573 12.4933 9.93016 12.5015 9.79848C12.5097 9.6668 12.4831 9.53528 12.4242 9.41719L10.9242 6.41719C10.8621 6.29163 10.766 6.186 10.6468 6.11226C10.5277 6.03853 10.3903 5.99964 10.2502 6C9.25561 6 8.30179 6.39509 7.59852 7.09835C6.89526 7.80161 6.50018 8.75544 6.50018 9.75C6.50266 11.9373 7.37265 14.0343 8.91928 15.5809C10.4659 17.1275 12.5629 17.9975 14.7502 18C15.2426 18 15.7303 17.903 16.1852 17.7145C16.6402 17.5261 17.0536 17.2499 17.4018 16.9017C17.75 16.5534 18.0263 16.14 18.2147 15.6851C18.4032 15.2301 18.5002 14.7425 18.5002 14.25C18.5003 14.1107 18.4616 13.9741 18.3884 13.8555C18.3152 13.7369 18.2104 13.6411 18.0858 13.5787ZM14.7502 16.5C12.9606 16.498 11.2448 15.7862 9.9794 14.5208C8.71396 13.2553 8.00216 11.5396 8.00018 9.75C8.00003 9.2298 8.18014 8.72562 8.50986 8.32326C8.83958 7.9209 9.29853 7.64521 9.80861 7.54313L10.8849 9.69937L9.96892 11.0625C9.90048 11.1652 9.85842 11.2831 9.84649 11.406C9.83455 11.5288 9.8531 11.6526 9.90049 11.7666C10.4371 13.0419 11.4517 14.0565 12.727 14.5931C12.8413 14.6426 12.9661 14.6629 13.0902 14.6521C13.2143 14.6413 13.3337 14.5998 13.4377 14.5312L14.8074 13.6181L16.9636 14.6944C16.8607 15.205 16.5838 15.6642 16.1802 15.9935C15.7765 16.3228 15.2711 16.5018 14.7502 16.5ZM12.5002 2.25C10.8169 2.24963 9.16213 2.68508 7.69704 3.51396C6.23194 4.34285 5.00641 5.53692 4.13971 6.97997C3.27302 8.42301 2.79469 10.0659 2.75129 11.7486C2.70789 13.4314 3.10089 15.0967 3.89205 16.5825L2.82799 19.7747C2.73985 20.039 2.72706 20.3226 2.79105 20.5938C2.85504 20.8649 2.99328 21.1129 3.19029 21.3099C3.38729 21.5069 3.63526 21.6451 3.90642 21.7091C4.17757 21.7731 4.46119 21.7603 4.72549 21.6722L7.91768 20.6081C9.22527 21.3036 10.6741 21.6921 12.1543 21.744C13.6344 21.7959 15.1069 21.51 16.4601 20.9079C17.8132 20.3057 19.0114 19.4033 19.9636 18.269C20.9159 17.1346 21.5972 15.7983 21.9559 14.3613C22.3146 12.9244 22.3412 11.4246 22.0337 9.97578C21.7263 8.527 21.0928 7.16731 20.1813 5.99992C19.2699 4.83253 18.1045 3.88811 16.7736 3.23836C15.4427 2.58861 13.9812 2.25061 12.5002 2.25ZM12.5002 20.25C11.0498 20.251 9.62495 19.8691 8.36955 19.1428C8.27763 19.0895 8.17544 19.0563 8.06974 19.0455C7.96404 19.0347 7.85724 19.0464 7.75643 19.08L4.25018 20.25L5.41924 16.7438C5.45294 16.643 5.46485 16.5362 5.45418 16.4305C5.44351 16.3248 5.41051 16.2226 5.35736 16.1306C4.44796 14.5584 4.08284 12.7299 4.31864 10.929C4.55444 9.12801 5.37798 7.4552 6.66151 6.17006C7.94503 4.88491 9.61679 4.05925 11.4175 3.82118C13.2181 3.5831 15.047 3.94591 16.6204 4.85333C18.1938 5.76074 19.4238 7.16204 20.1196 8.83983C20.8153 10.5176 20.9379 12.3781 20.4684 14.1327C19.9989 15.8873 18.9634 17.4379 17.5227 18.5439C16.082 19.65 14.3165 20.2497 12.5002 20.25Z" fill="#94B2C7"/>
</g>
</svg>
